Coordinates
version=1
nRows=10
nColumns=40
inDegrees=yes

Units are S.I. units (second, meters, Newtons, ...)
If the header above contains a line with 'inDegrees', this indicates whether rotational values are in degrees (yes) or radians (no).

endheader
time	pelvis_tilt	pelvis_list	pelvis_rotation	pelvis_tx	pelvis_ty	pelvis_tz	hip_flexion_r	hip_adduction_r	hip_rotation_r	knee_angle_r	knee_angle_r_beta	ankle_angle_r	subtalar_angle_r	mtp_angle_r	hip_flexion_l	hip_adduction_l	hip_rotation_l	knee_angle_l	knee_angle_l_beta	ankle_angle_l	subtalar_angle_l	mtp_angle_l	lumbar_extension	lumbar_bending	lumbar_rotation	arm_flex_r	arm_add_r	arm_rot_r	elbow_flex_r	pro_sup_r	wrist_flex_r	wrist_dev_r	arm_flex_l	arm_add_l	arm_rot_l	elbow_flex_l	pro_sup_l	wrist_flex_l	wrist_dev_l
      0.00000000	      0.51611413	      1.50521609	     -2.09559134	      0.26625047	      0.91329036	     -1.21406125	     -0.36376276	    -20.39958189	    -35.13127103	      6.83354284	      0.11926782	     -5.40727815	      9.91542851	      0.00000000	     -0.64820328	    -17.19147291	    -38.63570228	      7.62165346	      0.13302295	     -3.06148629	     17.98018317	      0.00000000	     -3.13620964	     -0.61311344	      0.19672571	     44.03843273	    -16.00511019	     44.03843273	     75.03495449	     44.97617493	      0.00000000	      0.00000000	     44.03843273	    -16.00511019	     44.03843273	     75.03495449	     44.97617493	      0.00000000	      0.00000000
      0.00500000	      0.50126624	      1.52232847	     -2.16891486	      0.26617792	      0.91328434	     -1.21394025	     -0.30050714	    -20.41778947	    -35.03659310	      6.84867139	      0.11953187	     -5.39493445	      9.88686301	      0.00000000	     -0.68205764	    -17.13900271	    -38.63941895	      7.53206018	      0.13145925	     -3.11187112	     17.87746793	      0.00000000	     -3.14320779	     -0.65562544	      0.22870420	     44.04953802	    -15.98813547	     44.04953802	     75.03402404	     44.97737954	      0.00000000	      0.00000000	     44.04953802	    -15.98813547	     44.04953802	     75.03402404	     44.97737954	      0.00000000	      0.00000000
      0.01000000	      0.50673307	      1.53005193	     -2.12226415	      0.26617101	      0.91327992	     -1.21403035	     -0.33109783	    -20.42760588	    -35.10388570	      6.84029254	      0.11938563	     -5.39892154	      9.88443061	      0.00000000	     -0.65001864	    -17.14768000	    -38.63875798	      7.58698595	      0.13241789	     -3.08557511	     17.93917120	      0.00000000	     -3.14284497	     -0.64958107	      0.21041043	     44.06130246	    -15.96875480	     44.06130246	     75.03281897	     44.97927618	      0.00000000	      0.00000000	     44.06130246	    -15.96875480	     44.06130246	     75.03281897	     44.97927618	      0.00000000	      0.00000000
      0.01500000	      0.52500086	      1.21795988	     -2.03610643	      0.26608681	      0.91345311	     -1.21417823	     -0.56762675	    -19.90070209	    -34.80365397	      6.36039080	      0.11100976	     -5.66439479	      9.32772135	      0.00000000	     -0.56549702	    -17.57545036	    -38.63307859	      7.82773035	      0.13661967	     -2.88958632	     18.00128218	      0.00000000	     -3.24023725	     -0.14150640	      0.25508590	     44.12386373	    -15.87281377	     44.12386373	     75.02767240	     44.98503517	      0.00000000	      0.00000000	     44.12386373	    -15.87281377	     44.12386373	     75.02767240	     44.98503517	      0.00000000	      0.00000000
      0.02000000	      0.49348965	      1.52170421	     -2.11666305	      0.26609580	      0.91326209	     -1.21403754	     -0.31545194	    -20.41865798	    -35.11095415	      6.83339014	      0.11926516	     -5.40706917	      9.88698837	      0.00000000	     -0.61443737	    -17.17048786	    -38.64581126	      7.62568371	      0.13309329	     -3.06668456	     17.94352025	      0.00000000	     -3.14834046	     -0.61197783	      0.23577233	     44.13333988	    -15.85819941	     44.13333988	     75.02685820	     44.98607981	      0.00000000	      0.00000000	     44.13333988	    -15.85819941	     44.13333988	     75.02685820	     44.98607981	      0.00000000	      0.00000000
      0.02500000	      0.50412223	      1.55607308	     -2.13472611	      0.26606886	      0.91325199	     -1.21399936	     -0.28263143	    -20.48946679	    -35.18034358	      6.92202948	      0.12081221	     -5.35844521	     10.00305555	      0.00000000	     -0.64304662	    -17.11847907	    -38.64131102	      7.58503922	      0.13238391	     -3.07878563	     17.91773163	      0.00000000	     -3.16372801	     -0.67562988	      0.24663024	     44.17427867	    -15.79781924	     44.17427867	     75.02383067	     44.98901879	      0.00000000	      0.00000000	     44.17427867	    -15.79781924	     44.17427867	     75.02383067	     44.98901879	      0.00000000	      0.00000000
      0.03000000	      0.54971872	      1.60249258	     -2.19473438	      0.26600490	      0.91333688	     -1.21390096	     -0.32083047	    -20.51914359	    -35.03918198	      6.86215128	      0.11976713	     -5.39457977	      9.88631622	      0.00000000	     -0.76545727	    -17.00162008	    -38.57665058	      7.40718326	      0.12927974	     -3.16990155	     17.70441438	      0.00000000	     -3.23751079	     -0.75917392	      0.28917810	     44.17557575	    -15.79522573	     44.17557575	     75.02364195	     44.98930044	      0.00000000	      0.00000000	     44.17557575	    -15.79522573	     44.17557575	     75.02364195	     44.98930044	      0.00000000	      0.00000000
      0.03500000	      0.51320118	      1.56264422	     -2.13809053	      0.26598188	      0.91326646	     -1.21400679	     -0.29708511	    -20.47948283	    -35.11416989	      6.88412546	      0.12015066	     -5.36211882	      9.84882433	      0.00000000	     -0.65098765	    -17.10709222	    -38.64419544	      7.57387071	      0.13218898	     -3.08592392	     17.94716760	      0.00000000	     -3.18416256	     -0.68712357	      0.23773497	     44.17914603	    -15.78983313	     44.17914603	     75.02333662	     44.98975587	      0.00000000	      0.00000000	     44.17914603	    -15.78983313	     44.17914603	     75.02333662	     44.98975587	      0.00000000	      0.00000000
      0.04000000	      0.51224031	      1.56331608	     -2.16212927	      0.26590550	      0.91327613	     -1.21395162	     -0.29219278	    -20.46297000	    -35.04336117	      6.84304865	      0.11943373	     -5.40324988	      9.78970211	      0.00000000	     -0.66404753	    -17.09727284	    -38.63536080	      7.54446223	      0.13167571	     -3.10546849	     17.89503944	      0.00000000	     -3.20736801	     -0.72383984	      0.24274495	     44.17974700	    -15.78717106	     44.17974700	     75.02305675	     44.99025560	      0.00000000	      0.00000000	     44.17974700	    -15.78717106	     44.17974700	     75.02305675	     44.99025560	      0.00000000	      0.00000000
      0.04500000	      0.59348679	      1.45803437	     -2.16545490	      0.26580652	      0.91348572	     -1.21393517	     -0.45866006	    -20.26529781	    -34.88665043	      6.61338864	      0.11542541	     -5.53977579	      9.60800274	      0.00000000	     -0.77504216	    -17.18050815	    -38.52098340	      7.47858083	      0.13052586	     -3.12140013	     17.61014203	      0.00000000	     -3.33388413	     -0.62226221	      0.23878881	     44.19806407	    -15.76153755	     44.19806407	     75.02189361	     44.99114983	      0.00000000	      0.00000000	     44.19806407	    -15.76153755	     44.19806407	     75.02189361	     44.99114983	      0.00000000	      0.00000000
